<mxfile host="app.diagrams.net" agent="Mozilla/5.0 (Windows NT 10.0; Win64; x64) AppleWebKit/537.36 (KHTML, like Gecko) Chrome/131.0.0.0 Safari/537.36" version="25.0.1">
  <diagram name="Page-1" id="LL-qZGuNhf-XK6N4RQkk">
    <mxGraphModel dx="2074" dy="1140" grid="1" gridSize="10" guides="1" tooltips="1" connect="1" arrows="1" fold="1" page="1" pageScale="1" pageWidth="1100" pageHeight="850" math="0" shadow="0">
      <root>
        <mxCell id="0" />
        <mxCell id="1" parent="0" />
        <mxCell id="wfCpUqHWvcHLarFDF52Q-11" style="edgeStyle=orthogonalEdgeStyle;rounded=0;orthogonalLoop=1;jettySize=auto;html=1;labelBackgroundColor=none;dashed=1;endArrow=none;endFill=0;" parent="1" source="1-Ly5R1n1xadF3KGZIch-1" edge="1">
          <mxGeometry relative="1" as="geometry">
            <mxPoint x="130" y="420" as="targetPoint" />
          </mxGeometry>
        </mxCell>
        <mxCell id="wfCpUqHWvcHLarFDF52Q-8" value="User" style="rounded=0;whiteSpace=wrap;html=1;fillColor=default;" parent="1" vertex="1">
          <mxGeometry x="70" y="60" width="120" height="60" as="geometry" />
        </mxCell>
        <mxCell id="wfCpUqHWvcHLarFDF52Q-12" style="edgeStyle=orthogonalEdgeStyle;rounded=0;orthogonalLoop=1;jettySize=auto;html=1;labelBackgroundColor=none;dashed=1;endArrow=none;endFill=0;" parent="1" source="1-Ly5R1n1xadF3KGZIch-3" edge="1">
          <mxGeometry relative="1" as="geometry">
            <mxPoint x="410" y="420" as="targetPoint" />
          </mxGeometry>
        </mxCell>
        <mxCell id="wfCpUqHWvcHLarFDF52Q-9" value="System" style="rounded=0;whiteSpace=wrap;html=1;fillColor=default;" parent="1" vertex="1">
          <mxGeometry x="350" y="60" width="120" height="60" as="geometry" />
        </mxCell>
        <mxCell id="wfCpUqHWvcHLarFDF52Q-13" style="edgeStyle=orthogonalEdgeStyle;rounded=0;orthogonalLoop=1;jettySize=auto;html=1;labelBackgroundColor=none;dashed=1;endArrow=none;endFill=0;" parent="1" source="1-Ly5R1n1xadF3KGZIch-5" edge="1">
          <mxGeometry relative="1" as="geometry">
            <mxPoint x="680" y="420" as="targetPoint" />
          </mxGeometry>
        </mxCell>
        <mxCell id="wfCpUqHWvcHLarFDF52Q-10" value="Form" style="rounded=0;whiteSpace=wrap;html=1;fillColor=default;" parent="1" vertex="1">
          <mxGeometry x="620" y="60" width="120" height="60" as="geometry" />
        </mxCell>
        <mxCell id="wfCpUqHWvcHLarFDF52Q-14" value="Request adding measurements" style="endArrow=classic;html=1;rounded=0;verticalAlign=bottom;labelBackgroundColor=none;" parent="1" edge="1">
          <mxGeometry width="50" height="50" relative="1" as="geometry">
            <mxPoint x="130" y="160" as="sourcePoint" />
            <mxPoint x="410" y="160" as="targetPoint" />
          </mxGeometry>
        </mxCell>
        <mxCell id="wfCpUqHWvcHLarFDF52Q-15" value="Open measurements form" style="endArrow=classic;html=1;rounded=0;verticalAlign=bottom;labelBackgroundColor=none;" parent="1" edge="1">
          <mxGeometry width="50" height="50" relative="1" as="geometry">
            <mxPoint x="410" y="190" as="sourcePoint" />
            <mxPoint x="680" y="190" as="targetPoint" />
          </mxGeometry>
        </mxCell>
        <mxCell id="wfCpUqHWvcHLarFDF52Q-16" value="Input measurements&amp;nbsp;&amp;nbsp;" style="endArrow=classic;html=1;rounded=0;verticalAlign=bottom;labelBackgroundColor=none;align=right;" parent="1" edge="1">
          <mxGeometry width="50" height="50" relative="1" as="geometry">
            <mxPoint x="130" y="270" as="sourcePoint" />
            <mxPoint x="680" y="270" as="targetPoint" />
          </mxGeometry>
        </mxCell>
        <mxCell id="wfCpUqHWvcHLarFDF52Q-17" value="Save measurements" style="endArrow=classic;html=1;rounded=0;verticalAlign=bottom;labelBackgroundColor=none;dashed=1;" parent="1" edge="1">
          <mxGeometry width="50" height="50" relative="1" as="geometry">
            <mxPoint x="680" y="320" as="sourcePoint" />
            <mxPoint x="410" y="320" as="targetPoint" />
          </mxGeometry>
        </mxCell>
        <mxCell id="wfCpUqHWvcHLarFDF52Q-18" value="Confirm adding of measurements" style="endArrow=classic;html=1;rounded=0;verticalAlign=bottom;labelBackgroundColor=none;dashed=1;" parent="1" edge="1">
          <mxGeometry width="50" height="50" relative="1" as="geometry">
            <mxPoint x="410" y="360" as="sourcePoint" />
            <mxPoint x="130" y="360" as="targetPoint" />
          </mxGeometry>
        </mxCell>
        <mxCell id="wfCpUqHWvcHLarFDF52Q-19" value="Display form to user&amp;nbsp;&amp;nbsp;" style="endArrow=classic;html=1;rounded=0;verticalAlign=bottom;labelBackgroundColor=none;dashed=1;align=right;" parent="1" edge="1">
          <mxGeometry width="50" height="50" relative="1" as="geometry">
            <mxPoint x="680" y="230" as="sourcePoint" />
            <mxPoint x="130" y="230" as="targetPoint" />
          </mxGeometry>
        </mxCell>
        <mxCell id="1-Ly5R1n1xadF3KGZIch-2" value="" style="edgeStyle=orthogonalEdgeStyle;rounded=0;orthogonalLoop=1;jettySize=auto;html=1;labelBackgroundColor=none;dashed=1;endArrow=none;endFill=0;" parent="1" source="wfCpUqHWvcHLarFDF52Q-8" target="1-Ly5R1n1xadF3KGZIch-1" edge="1">
          <mxGeometry relative="1" as="geometry">
            <mxPoint x="130" y="420" as="targetPoint" />
            <mxPoint x="130" y="120" as="sourcePoint" />
          </mxGeometry>
        </mxCell>
        <mxCell id="1-Ly5R1n1xadF3KGZIch-1" value="" style="rounded=0;whiteSpace=wrap;html=1;rotation=-90;fillColor=default;" parent="1" vertex="1">
          <mxGeometry x="5" y="260" width="250" height="15" as="geometry" />
        </mxCell>
        <mxCell id="1-Ly5R1n1xadF3KGZIch-4" value="" style="edgeStyle=orthogonalEdgeStyle;rounded=0;orthogonalLoop=1;jettySize=auto;html=1;labelBackgroundColor=none;dashed=1;endArrow=none;endFill=0;" parent="1" source="wfCpUqHWvcHLarFDF52Q-9" target="1-Ly5R1n1xadF3KGZIch-3" edge="1">
          <mxGeometry relative="1" as="geometry">
            <mxPoint x="410" y="420" as="targetPoint" />
            <mxPoint x="410" y="120" as="sourcePoint" />
          </mxGeometry>
        </mxCell>
        <mxCell id="1-Ly5R1n1xadF3KGZIch-3" value="" style="rounded=0;whiteSpace=wrap;html=1;rotation=-90;fillColor=default;" parent="1" vertex="1">
          <mxGeometry x="286.88" y="259.38" width="246.25" height="15" as="geometry" />
        </mxCell>
        <mxCell id="1-Ly5R1n1xadF3KGZIch-6" value="" style="edgeStyle=orthogonalEdgeStyle;rounded=0;orthogonalLoop=1;jettySize=auto;html=1;labelBackgroundColor=none;dashed=1;endArrow=none;endFill=0;" parent="1" source="wfCpUqHWvcHLarFDF52Q-10" target="1-Ly5R1n1xadF3KGZIch-5" edge="1">
          <mxGeometry relative="1" as="geometry">
            <mxPoint x="680" y="420" as="targetPoint" />
            <mxPoint x="680" y="120" as="sourcePoint" />
          </mxGeometry>
        </mxCell>
        <mxCell id="1-Ly5R1n1xadF3KGZIch-5" value="" style="rounded=0;whiteSpace=wrap;html=1;rotation=-90;fillColor=default;" parent="1" vertex="1">
          <mxGeometry x="596.25" y="246.25" width="167.5" height="15" as="geometry" />
        </mxCell>
        <mxCell id="YPdzJv4Y7-xX3vdxDb5l-1" value="&lt;font style=&quot;font-size: 48px;&quot;&gt;&lt;b&gt;x&lt;/b&gt;&lt;/font&gt;" style="text;html=1;align=center;verticalAlign=middle;whiteSpace=wrap;rounded=0;" parent="1" vertex="1">
          <mxGeometry x="650" y="410" width="60" height="30" as="geometry" />
        </mxCell>
      </root>
    </mxGraphModel>
  </diagram>
</mxfile>
